<svg xmlns="http://www.w3.org/2000/svg" viewBox="25 155 175 190" fill="none">
	<defs>
		<mask id="cava-cutouts">
			<rect x="25" y="155" width="175" height="190" fill="white" />
			<rect x="80.521469" y="270.890350" width="19.436478" height="19.353058" fill="black" />
			<rect x="70.426361" y="175.189575" width="19.190437" height="17.964401" fill="black" />
			<rect x="52.389126" y="218.541946" width="17.756031" height="17.258866" fill="black" />
			<rect x="42.411819" y="185.184967" width="16.872616" height="16.615112" fill="black" />
			<rect x="34.384399" y="255.393295" width="15.643189" height="15.321183" fill="black" />
			<rect x="29.993486" y="161.936981" width="13.535361" height="13.171295" fill="black" />
		</mask>
	</defs>
	<g mask="url(#cava-cutouts)">
		<path
			fill="#0DD5E5"
			d="M100.035843,271.052307 
			C100.035843,264.765076 100.035843,258.477844 100.035843,251.506592 
			C95.270241,251.506592 91.148430,251.734802 87.077179,251.381058 
			C85.679268,251.259583 83.478500,249.880280 83.236481,248.738266 
			C82.078133,243.272476 81.466080,237.690918 80.601952,231.752441 
			C87.394394,231.752441 93.323502,231.752441 99.500153,231.752441 
			C99.887093,235.640396 99.747658,239.689011 100.755791,243.428207 
			C105.186424,259.861664 115.943497,270.455505 132.525146,273.644043 
			C148.152481,276.649048 161.404922,270.898376 171.444641,258.594543 
			C173.614197,255.935730 175.600266,254.829498 178.887497,254.976364 
			C183.836563,255.197449 188.802841,255.033966 194.491440,255.033966 
			C189.552628,267.179321 181.870789,276.223236 171.345886,283.516083 
			C179.768494,299.207306 188.080093,314.691711 196.689056,330.730072 
			C190.835495,333.913879 185.207901,336.974762 179.079819,340.307861 
			C178.010025,338.454132 177.006516,336.811157 176.094131,335.119080 
			C168.913712,321.802094 161.695999,308.504639 154.628860,295.127655 
			C153.228119,292.476288 151.835800,291.673798 148.544922,291.728546 
			C140.306610,291.865570 132.045853,291.055878 123.805397,290.467590 
			C120.291588,290.216736 118.625282,288.423309 118.984467,284.527252 
			C119.377571,280.263367 119.073906,275.935303 119.073906,270.996399 
			C112.768219,270.996399 106.833992,270.996399 100.447578,271.003662 
			C99.995399,271.010956 100.035843,271.052307 100.035843,271.052307 
			z"
		/>
		<path
			fill="#05BAF6"
			d="M96.998940,206.084961 
			C98.761688,206.014160 100.059525,205.943344 101.620560,205.858185 
			C101.620560,201.881744 101.620560,198.125153 101.620560,194.206116 
			C100.147362,194.021317 98.757896,193.847031 96.627838,193.579865 
			C110.416428,178.956833 126.897583,173.337906 145.753113,175.353531 
			C168.708160,177.807388 184.645920,190.351364 194.597321,212.291595 
			C187.663376,212.291595 181.309219,212.374313 174.962387,212.195999 
			C174.083115,212.171310 173.039276,211.000107 172.410263,210.118164 
			C162.392990,196.072769 148.411301,191.360703 132.074707,194.274246 
			C116.083321,197.126205 106.036751,207.421280 100.942352,222.689697 
			C100.807220,223.094711 100.537361,223.454773 99.809509,224.794327 
			C99.809509,220.125854 99.809509,216.505142 99.809509,212.405960 
			C94.884850,212.405960 90.293884,212.405960 84.697105,212.405960 
			C86.051430,209.338226 87.071350,207.027969 87.843742,205.278412 
			C90.996849,205.571060 93.765442,205.828018 96.998940,206.084961 
			z"
		/>
	</g>
	<rect x="80.521469" y="270.890350" width="19.436478" height="19.353058" fill="#10D5E6" />
	<rect x="70.426361" y="175.189575" width="19.190437" height="17.964401" fill="#44ECF3" />
	<rect x="52.389126" y="218.541946" width="17.756031" height="17.258866" fill="#08B3FC" />
	<rect x="42.411819" y="185.184967" width="16.872616" height="16.615112" fill="#12D6E6" />
	<rect x="34.384399" y="255.393295" width="15.643189" height="15.321183" fill="#42ECF3" />
	<rect x="29.993486" y="161.936981" width="13.535361" height="13.171295" fill="#0AB4FC" />
</svg>
