<svg xmlns="http://www.w3.org/2000/svg" viewBox="0 0 24 24" fill="none">
	<path
		fill="#7B627D"
		d="M12 2C6.48 2 2 6.59 2 12.25c0 4.53 2.87 8.37 6.84 9.73.5.1.68-.22.68-.49 0-.24-.01-1.04-.01-1.88-2.78.62-3.37-1.21-3.37-1.21-.46-1.18-1.11-1.49-1.11-1.49-.91-.64.07-.63.07-.63 1 .08 1.53 1.06 1.53 1.06.9 1.57 2.36 1.12 2.94.86.09-.67.35-1.12.63-1.38-2.22-.26-4.56-1.14-4.56-5.06 0-1.12.39-2.03 1.03-2.75-.1-.26-.45-1.3.1-2.7 0 0 .84-.28 2.75 1.05A9.3 9.3 0 0 1 12 6.84c.85 0 1.71.12 2.51.35 1.91-1.33 2.75-1.05 2.75-1.05.55 1.4.2 2.44.1 2.7.64.72 1.03 1.63 1.03 2.75 0 3.93-2.34 4.79-4.57 5.05.36.32.68.95.68 1.92 0 1.39-.01 2.5-.01 2.84 0 .27.18.59.69.49A10.25 10.25 0 0 0 22 12.25C22 6.59 17.52 2 12 2Z"
	/>
</svg>
