<svg
	xmlns="http://www.w3.org/2000/svg"
	viewBox="59.273 32.426 11.239 11.09"
	fill="none"
>
	<defs>
		<linearGradient id="ohdsi-color-gradient" gradientUnits="userSpaceOnUse" x1="24.6483" y1="14.7023" x2="45.8109" y2="35.8649">
			<stop offset="0" stop-color="#EB6622" />
			<stop offset="1" stop-color="#FCCB10" />
		</linearGradient>
	</defs>
	<path
		fill="url(#ohdsi-color-gradient)"
		d="M70.498 43.2312l0.0139 -10.4203 -5.1274 5.0117 5.1135 5.4086zm-0.0018 -10.6255c-2.6726 0.5128 -5.0142 1.8912 -6.72651 3.5052l1.5078 1.5982 5.2187 -5.1034zm-10.937 10.9099l10.7813 -0.0015 -5.2389 -5.415 -5.5424 5.4165zm5.434 -5.5287l-2.0978 -2.1688 0.3277 0.837601c-1.807 1.9059 -3.3381 4.5798 -3.8834 6.85651l5.6535 -5.5253z"
	/>
	<path
		fill="#20425A"
		d="M69.749 32.4296l-10.4666 -0.0028 -0.00860001 10.1946c0.5364 -2.7772 2.0829 -5.3581 3.5692 -6.80361l0.028 -0.0316 -2.882 -2.8516 1.8666 0.759501 -0.3118 0.0521 1.697 1.7083c1.7029 -1.4669 4.3639 -2.737 6.5082 -3.0249z"
	/>
</svg>
