<svg xmlns="http://www.w3.org/2000/svg" viewBox="0 0 64 64" fill="none">
	<path
		fill="#09A3D5"
		transform="translate(10 5.5) scale(0.49) translate(0 -360.8)"
		d="M73.7,395.2c-13.5-1.6-14.5-19.7-31.8-18.1c-8.4,0-16.2,3.5-16.2,11.2c0,11.6,17.9,12.7,28.7,15.6c18.4,5.6,36.2,9.4,36.2,29.4c0,25.4-19.9,34.2-46.2,34.2c-22,0-44.3-7.8-44.3-28c0-5.6,5.4-10,10.6-10c6.6,0,8.9,2.8,11.2,7.4c5.1,9,10.8,13.8,25,13.8c9,0,18.2-3.4,18.2-11.2c0-11.1-11.3-13.5-23-16.2c-20.7-5.8-38.5-8.8-40.6-31.8c-2.2-39.2,79.5-40.7,84.2-6.3C85.6,391.4,79.8,395.2,73.7,395.2z"
	/>
</svg>
