<svg xmlns="http://www.w3.org/2000/svg" viewBox="0 0 64 64" fill="none">
	<ellipse cx="18" cy="16" rx="9" ry="4.5" fill="#3E6C96" />
	<path
		d="M9 16V33C9 35.4853 13.0294 37.5 18 37.5C22.9706 37.5 27 35.4853 27 33V16"
		fill="#4C7CAA"
	/>
	<path
		d="M9 16V33C9 35.4853 13.0294 37.5 18 37.5C22.9706 37.5 27 35.4853 27 33V16"
		stroke="#31536F"
		stroke-width="3"
	/>
	<path d="M9 24C9 26.4853 13.0294 28.5 18 28.5C22.9706 28.5 27 26.4853 27 24" stroke="#31536F" stroke-width="3" />
	<path d="M27 26H34" stroke="#4B2A7B" stroke-linecap="round" stroke-width="3" />
	<rect x="36" y="13" width="18" height="18" rx="4" fill="#EEF3FF" stroke="#4B2A7B" stroke-width="3" />
	<path d="M40 27V17M40 27H50" stroke="#4B2A7B" stroke-linecap="round" stroke-width="3" />
	<circle cx="45" cy="20.5" r="2.4" fill="#00BBF9" />
	<circle cx="48.5" cy="24" r="2.4" fill="#9B5DE5" />
	<circle cx="42.5" cy="25.5" r="2.4" fill="#F15BB5" />
	<circle cx="45" cy="20.5" r="4.8" stroke="#4B2A7B" stroke-width="2" />
	<path d="M40 42H50" stroke="#4B2A7B" stroke-linecap="round" stroke-width="3" />
	<path d="M45 37V47" stroke="#4B2A7B" stroke-linecap="round" stroke-width="3" />
	<circle cx="45" cy="42" r="9" stroke="#4B2A7B" stroke-dasharray="2.5 2.5" stroke-width="2.5" />
</svg>
